<svg width="100%" height="auto"
 viewBox="0.00 0.00 1455.00 580.00" xmlns="http://www.w3.org/2000/svg" xmlns:xlink="http://www.w3.org/1999/xlink">
<g id="graph0" class="graph" transform="scale(1 1) rotate(0) translate(4 576)">
<title>G</title>
<polygon fill="#fdf6ec" stroke="transparent" points="-4,4 -4,-576 1451,-576 1451,4 -4,4"/>
<g id="clust1" class="cluster">
<title>cluster_legend</title>
<path fill="#fffaf2" stroke="#8b7355" stroke-dasharray="5,2" d="M1365,-8C1365,-8 1427,-8 1427,-8 1433,-8 1439,-14 1439,-20 1439,-20 1439,-552 1439,-552 1439,-558 1433,-564 1427,-564 1427,-564 1365,-564 1365,-564 1359,-564 1353,-558 1353,-552 1353,-552 1353,-20 1353,-20 1353,-14 1359,-8 1365,-8"/>
<text text-anchor="middle" x="1396" y="-552" font-family="Times,serif" font-size="10.00" fill="#3d2f2f">图例 Legend</text>
</g>
<!-- root -->
<g id="node1" class="node">
<title>root</title>
<path fill="#c0392b" stroke="black" stroke-width="2.5" d="M747,-537C747,-537 665,-537 665,-537 659,-537 653,-531 653,-525 653,-525 653,-513 653,-513 653,-507 659,-501 665,-501 665,-501 747,-501 747,-501 753,-501 759,-507 759,-513 759,-513 759,-525 759,-525 759,-531 753,-537 747,-537"/>
<text text-anchor="middle" x="706" y="-522.6" font-family="Noto Sans SC" font-size="13.00" fill="#ffffff">信仰与权力交织</text>
<text text-anchor="middle" x="706" y="-508.6" font-family="Noto Sans SC" font-size="13.00" fill="#ffffff">千年长夜</text>
</g>
<!-- t1_west -->
<g id="node2" class="node">
<title>t1_west</title>
<path fill="#d4a574" stroke="black" stroke-width="1.2" d="M299,-455C299,-455 213,-455 213,-455 207,-455 201,-449 201,-443 201,-443 201,-431 201,-431 201,-425 207,-419 213,-419 213,-419 299,-419 299,-419 305,-419 311,-425 311,-431 311,-431 311,-443 311,-443 311,-449 305,-455 299,-455"/>
<text text-anchor="middle" x="256" y="-440.2" font-family="Noto Sans SC" font-size="11.00" fill="#ffffff">西欧基督教文明</text>
<text text-anchor="middle" x="256" y="-428.2" font-family="Noto Sans SC" font-size="11.00" fill="#ffffff">政教分离·封建契约</text>
</g>
<!-- root&#45;&gt;t1_west -->
<g id="edge1" class="edge">
<title>root&#45;&gt;t1_west</title>
<path fill="none" stroke="#c0392b" stroke-width="1.5" d="M652.61,-508.51C569.78,-493.78 410.55,-465.48 321.1,-449.57"/>
<polygon fill="#c0392b" stroke="#c0392b" stroke-width="1.5" points="321.53,-446.1 311.08,-447.79 320.31,-452.99 321.53,-446.1"/>
<text text-anchor="middle" x="535.5" y="-475.8" font-family="Noto Sans SC" font-size="9.00">教权约束王权</text>
</g>
<!-- t1_east -->
<g id="node3" class="node">
<title>t1_east</title>
<path fill="#d4a574" stroke="black" stroke-width="1.2" d="M644,-455C644,-455 558,-455 558,-455 552,-455 546,-449 546,-443 546,-443 546,-431 546,-431 546,-425 552,-419 558,-419 558,-419 644,-419 644,-419 650,-419 656,-425 656,-431 656,-431 656,-443 656,-443 656,-449 650,-455 644,-455"/>
<text text-anchor="middle" x="601" y="-440.2" font-family="Noto Sans SC" font-size="11.00" fill="#ffffff">东亚中华文明</text>
<text text-anchor="middle" x="601" y="-428.2" font-family="Noto Sans SC" font-size="11.00" fill="#ffffff">君主集权·科举文官</text>
</g>
<!-- root&#45;&gt;t1_east -->
<g id="edge2" class="edge">
<title>root&#45;&gt;t1_east</title>
<path fill="none" stroke="#c0392b" stroke-width="1.5" d="M683.47,-500.84C668.39,-489.34 648.34,-474.07 631.78,-461.45"/>
<polygon fill="#c0392b" stroke="#c0392b" stroke-width="1.5" points="633.56,-458.41 623.49,-455.13 629.32,-463.98 633.56,-458.41"/>
<text text-anchor="middle" x="687.5" y="-475.8" font-family="Noto Sans SC" font-size="9.00">科举打破门阀</text>
</g>
<!-- t1_arab -->
<g id="node4" class="node">
<title>t1_arab</title>
<path fill="#d4a574" stroke="black" stroke-width="1.2" d="M954,-455C954,-455 868,-455 868,-455 862,-455 856,-449 856,-443 856,-443 856,-431 856,-431 856,-425 862,-419 868,-419 868,-419 954,-419 954,-419 960,-419 966,-425 966,-431 966,-431 966,-443 966,-443 966,-449 960,-455 954,-455"/>
<text text-anchor="middle" x="911" y="-440.2" font-family="Noto Sans SC" font-size="11.00" fill="#ffffff">阿拉伯伊斯兰文明</text>
<text text-anchor="middle" x="911" y="-428.2" font-family="Noto Sans SC" font-size="11.00" fill="#ffffff">政教合一·商业网络</text>
</g>
<!-- root&#45;&gt;t1_arab -->
<g id="edge3" class="edge">
<title>root&#45;&gt;t1_arab</title>
<path fill="none" stroke="#c0392b" stroke-width="1.5" d="M749.73,-500.94C781.3,-488.62 824.11,-471.91 857.69,-458.81"/>
<polygon fill="#c0392b" stroke="#c0392b" stroke-width="1.5" points="859.3,-461.93 867.34,-455.04 856.75,-455.41 859.3,-461.93"/>
<text text-anchor="middle" x="848.5" y="-475.8" font-family="Noto Sans SC" font-size="9.00">教义驱动扩张</text>
</g>
<!-- t1_byz -->
<g id="node5" class="node">
<title>t1_byz</title>
<path fill="#d4a574" stroke="black" stroke-width="1.2" d="M1207,-455C1207,-455 1121,-455 1121,-455 1115,-455 1109,-449 1109,-443 1109,-443 1109,-431 1109,-431 1109,-425 1115,-419 1121,-419 1121,-419 1207,-419 1207,-419 1213,-419 1219,-425 1219,-431 1219,-431 1219,-443 1219,-443 1219,-449 1213,-455 1207,-455"/>
<text text-anchor="middle" x="1164" y="-440.2" font-family="Noto Sans SC" font-size="11.00" fill="#ffffff">拜占庭文明</text>
<text text-anchor="middle" x="1164" y="-428.2" font-family="Noto Sans SC" font-size="11.00" fill="#ffffff">罗马遗产·专制延续</text>
</g>
<!-- root&#45;&gt;t1_byz -->
<g id="edge4" class="edge">
<title>root&#45;&gt;t1_byz</title>
<path fill="none" stroke="#c0392b" stroke-width="1.5" d="M759.43,-508.67C843.82,-493.93 1007.68,-465.31 1098.83,-449.38"/>
<polygon fill="#c0392b" stroke="#c0392b" stroke-width="1.5" points="1099.52,-452.82 1108.77,-447.65 1098.32,-445.92 1099.52,-452.82"/>
<text text-anchor="middle" x="990.5" y="-475.8" font-family="Noto Sans SC" font-size="9.00">政教合一传承</text>
</g>
<!-- t2_feud -->
<g id="node6" class="node">
<title>t2_feud</title>
<path fill="#fffaf2" stroke="#5a3e3e" d="M234,-373C234,-373 144,-373 144,-373 138,-373 132,-367 132,-361 132,-361 132,-349 132,-349 132,-343 138,-337 144,-337 144,-337 234,-337 234,-337 240,-337 246,-343 246,-349 246,-349 246,-361 246,-361 246,-367 240,-373 234,-373"/>
<text text-anchor="middle" x="189" y="-358.2" font-family="Noto Sans SC" font-size="11.00">封建制度</text>
<text text-anchor="middle" x="189" y="-346.2" font-family="Noto Sans SC" font-size="11.00">采邑·封君封臣·骑士</text>
</g>
<!-- t1_west&#45;&gt;t2_feud -->
<g id="edge5" class="edge">
<title>t1_west&#45;&gt;t2_feud</title>
<path fill="none" stroke="#d4a574" d="M233.01,-418.74C226.76,-413.44 220.27,-407.33 215,-401 210.27,-395.32 205.9,-388.66 202.15,-382.23"/>
<polygon fill="#d4a574" stroke="#d4a574" points="205.02,-380.19 197.13,-373.13 198.89,-383.57 205.02,-380.19"/>
<text text-anchor="middle" x="247" y="-393.8" font-family="Noto Sans SC" font-size="9.00">土地换军事服务</text>
</g>
<!-- t2_church -->
<g id="node7" class="node">
<title>t2_church</title>
<path fill="#fffaf2" stroke="#5a3e3e" d="M355.5,-373C355.5,-373 276.5,-373 276.5,-373 270.5,-373 264.5,-367 264.5,-361 264.5,-361 264.5,-349 264.5,-349 264.5,-343 270.5,-337 276.5,-337 276.5,-337 355.5,-337 355.5,-337 361.5,-337 367.5,-343 367.5,-349 367.5,-349 367.5,-361 367.5,-361 367.5,-367 361.5,-373 355.5,-373"/>
<text text-anchor="middle" x="316" y="-358.2" font-family="Noto Sans SC" font-size="11.00">罗马教会</text>
<text text-anchor="middle" x="316" y="-346.2" font-family="Noto Sans SC" font-size="11.00">教宗·修道院·大学</text>
</g>
<!-- t1_west&#45;&gt;t2_church -->
<g id="edge6" class="edge">
<title>t1_west&#45;&gt;t2_church</title>
<path fill="none" stroke="#d4a574" d="M269.02,-418.64C277.25,-407.66 288.03,-393.29 297.18,-381.09"/>
<polygon fill="#d4a574" stroke="#d4a574" points="300.01,-383.15 303.21,-373.05 294.41,-378.95 300.01,-383.15"/>
<text text-anchor="middle" x="317.5" y="-393.8" font-family="Noto Sans SC" font-size="9.00">精神权威中心</text>
</g>
<!-- t2_city -->
<g id="node8" class="node">
<title>t2_city</title>
<path fill="#fffaf2" stroke="#5a3e3e" d="M102,-373C102,-373 12,-373 12,-373 6,-373 0,-367 0,-361 0,-361 0,-349 0,-349 0,-343 6,-337 12,-337 12,-337 102,-337 102,-337 108,-337 114,-343 114,-349 114,-349 114,-361 114,-361 114,-367 108,-373 102,-373"/>
<text text-anchor="middle" x="57" y="-358.2" font-family="Noto Sans SC" font-size="11.00">城市复兴</text>
<text text-anchor="middle" x="57" y="-346.2" font-family="Noto Sans SC" font-size="11.00">行会·汉萨同盟·市民</text>
</g>
<!-- t1_west&#45;&gt;t2_city -->
<g id="edge7" class="edge">
<title>t1_west&#45;&gt;t2_city</title>
<path fill="none" stroke="#8b7355" stroke-dasharray="5,2" d="M200.84,-425.92C176.34,-420.33 147.55,-412.2 123,-401 110.36,-395.23 97.5,-387.09 86.53,-379.31"/>
<polygon fill="#8b7355" stroke="#8b7355" points="88.32,-376.28 78.18,-373.2 84.18,-381.93 88.32,-376.28"/>
<text text-anchor="middle" x="164" y="-393.8" font-family="Noto Sans SC" font-size="9.00">瓦解封建的第三力量</text>
</g>
<!-- t2_keju -->
<g id="node9" class="node">
<title>t2_keju</title>
<path fill="#fffaf2" stroke="#5a3e3e" d="M617,-373C617,-373 519,-373 519,-373 513,-373 507,-367 507,-361 507,-361 507,-349 507,-349 507,-343 513,-337 519,-337 519,-337 617,-337 617,-337 623,-337 629,-343 629,-349 629,-349 629,-361 629,-361 629,-367 623,-373 617,-373"/>
<text text-anchor="middle" x="568" y="-358.2" font-family="Noto Sans SC" font-size="11.00">科举制度</text>
<text text-anchor="middle" x="568" y="-346.2" font-family="Noto Sans SC" font-size="11.00">寒门上升通道·士大夫</text>
</g>
<!-- t1_east&#45;&gt;t2_keju -->
<g id="edge8" class="edge">
<title>t1_east&#45;&gt;t2_keju</title>
<path fill="none" stroke="#d4a574" d="M593.84,-418.64C589.49,-408.09 583.84,-394.39 578.93,-382.51"/>
<polygon fill="#d4a574" stroke="#d4a574" points="582.08,-380.96 575.03,-373.05 575.61,-383.63 582.08,-380.96"/>
<text text-anchor="middle" x="605.5" y="-393.8" font-family="Noto Sans SC" font-size="9.00">选拔文官</text>
</g>
<!-- t2_tech -->
<g id="node10" class="node">
<title>t2_tech</title>
<path fill="#fffaf2" stroke="#5a3e3e" d="M749,-373C749,-373 659,-373 659,-373 653,-373 647,-367 647,-361 647,-361 647,-349 647,-349 647,-343 653,-337 659,-337 659,-337 749,-337 749,-337 755,-337 761,-343 761,-349 761,-349 761,-361 761,-361 761,-367 755,-373 749,-373"/>
<text text-anchor="middle" x="704" y="-358.2" font-family="Noto Sans SC" font-size="11.00">唐宋科技</text>
<text text-anchor="middle" x="704" y="-346.2" font-family="Noto Sans SC" font-size="11.00">四大发明·冶金·天文</text>
</g>
<!-- t1_east&#45;&gt;t2_tech -->
<g id="edge9" class="edge">
<title>t1_east&#45;&gt;t2_tech</title>
<path fill="none" stroke="#d4a574" d="M623.1,-418.84C637.9,-407.34 657.57,-392.07 673.81,-379.45"/>
<polygon fill="#d4a574" stroke="#d4a574" points="676.19,-382.03 681.94,-373.13 671.9,-376.5 676.19,-382.03"/>
<text text-anchor="middle" x="686.5" y="-393.8" font-family="Noto Sans SC" font-size="9.00">稳定促进创新</text>
</g>
<!-- t2_trade_east -->
<g id="node11" class="node">
<title>t2_trade_east</title>
<path fill="#fffaf2" stroke="#5a3e3e" d="M476.5,-373C476.5,-373 397.5,-373 397.5,-373 391.5,-373 385.5,-367 385.5,-361 385.5,-361 385.5,-349 385.5,-349 385.5,-343 391.5,-337 397.5,-337 397.5,-337 476.5,-337 476.5,-337 482.5,-337 488.5,-343 488.5,-349 488.5,-349 488.5,-361 488.5,-361 488.5,-367 482.5,-373 476.5,-373"/>
<text text-anchor="middle" x="437" y="-358.2" font-family="Noto Sans SC" font-size="11.00">丝绸之路东段</text>
<text text-anchor="middle" x="437" y="-346.2" font-family="Noto Sans SC" font-size="11.00">西域·市舶司·朝贡</text>
</g>
<!-- t1_east&#45;&gt;t2_trade_east -->
<g id="edge10" class="edge">
<title>t1_east&#45;&gt;t2_trade_east</title>
<path fill="none" stroke="#8b7355" d="M565.82,-418.84C541.07,-406.76 507.75,-390.51 481.21,-377.56"/>
<polygon fill="#8b7355" stroke="#8b7355" points="482.65,-374.37 472.12,-373.13 479.58,-380.66 482.65,-374.37"/>
<text text-anchor="middle" x="547.5" y="-393.8" font-family="Noto Sans SC" font-size="9.00">商路延伸</text>
</g>
<!-- t2_science -->
<g id="node12" class="node">
<title>t2_science</title>
<path fill="#fffaf2" stroke="#5a3e3e" d="M958,-373C958,-373 864,-373 864,-373 858,-373 852,-367 852,-361 852,-361 852,-349 852,-349 852,-343 858,-337 864,-337 864,-337 958,-337 958,-337 964,-337 970,-343 970,-349 970,-349 970,-361 970,-361 970,-367 964,-373 958,-373"/>
<text text-anchor="middle" x="911" y="-358.2" font-family="Noto Sans SC" font-size="11.00">黄金时代科技</text>
<text text-anchor="middle" x="911" y="-346.2" font-family="Noto Sans SC" font-size="11.00">代数·医学·天文·化学</text>
</g>
<!-- t1_arab&#45;&gt;t2_science -->
<g id="edge11" class="edge">
<title>t1_arab&#45;&gt;t2_science</title>
<path fill="none" stroke="#d4a574" d="M911,-418.64C911,-408.3 911,-394.94 911,-383.22"/>
<polygon fill="#d4a574" stroke="#d4a574" points="914.5,-383.05 911,-373.05 907.5,-383.05 914.5,-383.05"/>
<text text-anchor="middle" x="938.5" y="-393.8" font-family="Noto Sans SC" font-size="9.00">翻译运动驱动</text>
</g>
<!-- t2_trade_arab -->
<g id="node13" class="node">
<title>t2_trade_arab</title>
<path fill="#fffaf2" stroke="#5a3e3e" d="M1086,-373C1086,-373 1000,-373 1000,-373 994,-373 988,-367 988,-361 988,-361 988,-349 988,-349 988,-343 994,-337 1000,-337 1000,-337 1086,-337 1086,-337 1092,-337 1098,-343 1098,-349 1098,-349 1098,-361 1098,-361 1098,-367 1092,-373 1086,-373"/>
<text text-anchor="middle" x="1043" y="-358.2" font-family="Noto Sans SC" font-size="11.00">贸易网络</text>
<text text-anchor="middle" x="1043" y="-346.2" font-family="Noto Sans SC" font-size="11.00">丝绸之路·季风航线</text>
</g>
<!-- t1_arab&#45;&gt;t2_trade_arab -->
<g id="edge12" class="edge">
<title>t1_arab&#45;&gt;t2_trade_arab</title>
<path fill="none" stroke="#d4a574" d="M940.17,-418.83C949.7,-413.18 960.32,-406.86 970,-401 981.98,-393.76 995.01,-385.76 1006.7,-378.55"/>
<polygon fill="#d4a574" stroke="#d4a574" points="1008.67,-381.44 1015.34,-373.21 1004.99,-375.49 1008.67,-381.44"/>
<text text-anchor="middle" x="1014.5" y="-393.8" font-family="Noto Sans SC" font-size="9.00">地理枢纽优势</text>
</g>
<!-- t2_rational -->
<g id="node14" class="node">
<title>t2_rational</title>
<path fill="#fffaf2" stroke="#5a3e3e" d="M1241.5,-373C1241.5,-373 1128.5,-373 1128.5,-373 1122.5,-373 1116.5,-367 1116.5,-361 1116.5,-361 1116.5,-349 1116.5,-349 1116.5,-343 1122.5,-337 1128.5,-337 1128.5,-337 1241.5,-337 1241.5,-337 1247.5,-337 1253.5,-343 1253.5,-349 1253.5,-349 1253.5,-361 1253.5,-361 1253.5,-367 1247.5,-373 1241.5,-373"/>
<text text-anchor="middle" x="1185" y="-358.2" font-family="Noto Sans SC" font-size="11.00">理性主义</text>
<text text-anchor="middle" x="1185" y="-346.2" font-family="Noto Sans SC" font-size="11.00">伊本·鲁世德·亚里士多德</text>
</g>
<!-- t1_arab&#45;&gt;t2_rational -->
<g id="edge13" class="edge">
<title>t1_arab&#45;&gt;t2_rational</title>
<path fill="none" stroke="#8b7355" d="M966.05,-422.52C990.61,-416.3 1019.85,-408.62 1046,-401 1072.12,-393.39 1100.76,-384.26 1125.21,-376.22"/>
<polygon fill="#8b7355" stroke="#8b7355" points="1126.32,-379.54 1134.71,-373.08 1124.12,-372.89 1126.32,-379.54"/>
<text text-anchor="middle" x="1095.5" y="-393.8" font-family="Noto Sans SC" font-size="9.00">注释传承</text>
</g>
<!-- t3_crusade -->
<g id="node16" class="node">
<title>t3_crusade</title>
<polygon fill="#fef5e7" stroke="#8b7355" points="477.5,-291 390.5,-291 390.5,-255 483.5,-255 483.5,-285 477.5,-291"/>
<polyline fill="none" stroke="#8b7355" points="477.5,-291 477.5,-285 "/>
<polyline fill="none" stroke="#8b7355" points="483.5,-285 477.5,-285 "/>
<text text-anchor="middle" x="437" y="-276.2" font-family="Noto Sans SC" font-size="11.00">十字军东征</text>
<text text-anchor="middle" x="437" y="-264.2" font-family="Noto Sans SC" font-size="11.00">200年宗教战争</text>
</g>
<!-- t1_arab&#45;&gt;t3_crusade -->
<g id="edge18" class="edge">
<title>t1_arab&#45;&gt;t3_crusade</title>
<path fill="none" stroke="#c0392b" stroke-width="1.2" stroke-dasharray="5,2" d="M877.96,-418.92C856.58,-407.22 828.62,-390.66 806,-373 788.16,-359.07 790.13,-347.34 770,-337 661.44,-281.21 616.2,-317.81 493.44,-291.12"/>
<polygon fill="#c0392b" stroke="#c0392b" stroke-width="1.2" points="494.22,-287.71 483.69,-288.9 492.66,-294.53 494.22,-287.71"/>
<text text-anchor="middle" x="824.5" y="-352.8" font-family="Noto Sans SC" font-size="9.00">圣城争夺</text>
</g>
<!-- t1_byz&#45;&gt;t3_crusade -->
<g id="edge19" class="edge">
<title>t1_byz&#45;&gt;t3_crusade</title>
<path fill="none" stroke="#c0392b" stroke-dasharray="5,2" d="M1201.68,-418.91C1239.85,-399.37 1289.61,-366.31 1262,-337 1205.07,-276.56 614.95,-304.43 493.84,-290.71"/>
<polygon fill="#c0392b" stroke="#c0392b" points="494.01,-287.2 483.62,-289.24 493.02,-294.12 494.01,-287.2"/>
<text text-anchor="middle" x="1297.5" y="-352.8" font-family="Noto Sans SC" font-size="9.00">求援反遭洗劫</text>
</g>
<!-- t3_magna -->
<g id="node15" class="node">
<title>t3_magna</title>
<polygon fill="#fef5e7" stroke="#8b7355" points="232,-291 152,-291 152,-255 238,-255 238,-285 232,-291"/>
<polyline fill="none" stroke="#8b7355" points="232,-291 232,-285 "/>
<polyline fill="none" stroke="#8b7355" points="238,-285 232,-285 "/>
<text text-anchor="middle" x="195" y="-276.2" font-family="Noto Sans SC" font-size="11.00">大宪章(1215)</text>
<text text-anchor="middle" x="195" y="-264.2" font-family="Noto Sans SC" font-size="11.00">王在法下</text>
</g>
<!-- t2_feud&#45;&gt;t3_magna -->
<g id="edge14" class="edge">
<title>t2_feud&#45;&gt;t3_magna</title>
<path fill="none" stroke="#8b7355" d="M190.3,-336.64C191.08,-326.3 192.08,-312.94 192.96,-301.22"/>
<polygon fill="#8b7355" stroke="#8b7355" points="196.46,-301.28 193.72,-291.05 189.48,-300.76 196.46,-301.28"/>
<text text-anchor="middle" x="220.5" y="-311.8" font-family="Noto Sans SC" font-size="9.00">贵族制衡王权</text>
</g>
<!-- t2_church&#45;&gt;t3_crusade -->
<g id="edge15" class="edge">
<title>t2_church&#45;&gt;t3_crusade</title>
<path fill="none" stroke="#c0392b" stroke-width="1.2" d="M352.87,-336.96C363.22,-331.66 374.29,-325.5 384,-319 393.28,-312.79 402.76,-305.2 411.1,-298.03"/>
<polygon fill="#c0392b" stroke="#c0392b" stroke-width="1.2" points="413.5,-300.58 418.7,-291.35 408.88,-295.33 413.5,-300.58"/>
<text text-anchor="middle" x="424.5" y="-311.8" font-family="Noto Sans SC" font-size="9.00">教宗号召圣战</text>
</g>
<!-- t3_renaissance -->
<g id="node17" class="node">
<title>t3_renaissance</title>
<polygon fill="#fef5e7" stroke="#8b7355" points="366,-291 258,-291 258,-255 372,-255 372,-285 366,-291"/>
<polyline fill="none" stroke="#8b7355" points="366,-291 366,-285 "/>
<polyline fill="none" stroke="#8b7355" points="372,-285 366,-285 "/>
<text text-anchor="middle" x="315" y="-276.2" font-family="Noto Sans SC" font-size="11.00">加洛林文艺复兴</text>
<text text-anchor="middle" x="315" y="-264.2" font-family="Noto Sans SC" font-size="11.00">典籍抢救·七艺·大学</text>
</g>
<!-- t2_church&#45;&gt;t3_renaissance -->
<g id="edge16" class="edge">
<title>t2_church&#45;&gt;t3_renaissance</title>
<path fill="none" stroke="#8b7355" d="M315.78,-336.64C315.65,-326.3 315.49,-312.94 315.34,-301.22"/>
<polygon fill="#8b7355" stroke="#8b7355" points="318.84,-301.01 315.21,-291.05 311.84,-301.09 318.84,-301.01"/>
<text text-anchor="middle" x="348" y="-311.8" font-family="Noto Sans SC" font-size="9.00">修道院保存典籍</text>
</g>
<!-- t3_plague -->
<g id="node19" class="node">
<title>t3_plague</title>
<polygon fill="#fef5e7" stroke="#8b7355" points="124,-291 2,-291 2,-255 130,-255 130,-285 124,-291"/>
<polyline fill="none" stroke="#8b7355" points="124,-291 124,-285 "/>
<polyline fill="none" stroke="#8b7355" points="130,-285 124,-285 "/>
<text text-anchor="middle" x="66" y="-276.2" font-family="Noto Sans SC" font-size="11.00">黑死病</text>
<text text-anchor="middle" x="66" y="-264.2" font-family="Noto Sans SC" font-size="11.00">1/3人口死亡·社会重构</text>
</g>
<!-- t2_city&#45;&gt;t3_plague -->
<g id="edge17" class="edge">
<title>t2_city&#45;&gt;t3_plague</title>
<path fill="none" stroke="#8b7355" d="M58.95,-336.64C60.12,-326.3 61.62,-312.94 62.94,-301.22"/>
<polygon fill="#8b7355" stroke="#8b7355" points="66.44,-301.38 64.08,-291.05 59.49,-300.6 66.44,-301.38"/>
<text text-anchor="middle" x="90.5" y="-311.8" font-family="Noto Sans SC" font-size="9.00">城市密集传播</text>
</g>
<!-- t4_modern -->
<g id="node21" class="node">
<title>t4_modern</title>
<path fill="#c0392b" stroke="transparent" d="M355,-209C355,-209 275,-209 275,-209 269,-209 263,-203 263,-197 263,-197 263,-174 263,-174 263,-168 269,-162 275,-162 275,-162 355,-162 355,-162 361,-162 367,-168 367,-174 367,-174 367,-197 367,-197 367,-203 361,-209 355,-209"/>
<text text-anchor="middle" x="315" y="-195.4" font-family="Noto Sans SC" font-size="12.00" fill="#ffffff">走出中世纪</text>
<text text-anchor="middle" x="315" y="-182.4" font-family="Noto Sans SC" font-size="12.00" fill="#ffffff">文艺复兴·大航海</text>
<text text-anchor="middle" x="315" y="-169.4" font-family="Noto Sans SC" font-size="12.00" fill="#ffffff">主权国家</text>
</g>
<!-- t3_magna&#45;&gt;t4_modern -->
<g id="edge20" class="edge">
<title>t3_magna&#45;&gt;t4_modern</title>
<path fill="none" stroke="#8b7355" d="M219,-254.9C235.01,-243.49 256.45,-228.21 275.01,-214.99"/>
<polygon fill="#8b7355" stroke="#8b7355" points="277.2,-217.73 283.31,-209.08 273.13,-212.03 277.2,-217.73"/>
<text text-anchor="middle" x="273.5" y="-229.8" font-family="Noto Sans SC" font-size="9.00">宪政起源</text>
</g>
<!-- t3_crusade&#45;&gt;t4_modern -->
<g id="edge21" class="edge">
<title>t3_crusade&#45;&gt;t4_modern</title>
<path fill="none" stroke="#8b7355" d="M412.6,-254.9C396.32,-243.49 374.52,-228.21 355.65,-214.99"/>
<polygon fill="#8b7355" stroke="#8b7355" points="357.42,-211.95 347.22,-209.08 353.4,-217.69 357.42,-211.95"/>
<text text-anchor="middle" x="414.5" y="-229.8" font-family="Noto Sans SC" font-size="9.00">打破信息茧房</text>
</g>
<!-- t3_renaissance&#45;&gt;t4_modern -->
<g id="edge22" class="edge">
<title>t3_renaissance&#45;&gt;t4_modern</title>
<path fill="none" stroke="#d4a574" d="M315,-254.7C315,-244.58 315,-231.48 315,-219.47"/>
<polygon fill="#d4a574" stroke="#d4a574" points="318.5,-219.29 315,-209.29 311.5,-219.29 318.5,-219.29"/>
<text text-anchor="middle" x="333.5" y="-229.8" font-family="Noto Sans SC" font-size="9.00">文化奠基</text>
</g>
<!-- t3_mongol -->
<g id="node18" class="node">
<title>t3_mongol</title>
<polygon fill="#fef5e7" stroke="#8b7355" points="628.5,-291 501.5,-291 501.5,-255 634.5,-255 634.5,-285 628.5,-291"/>
<polyline fill="none" stroke="#8b7355" points="628.5,-291 628.5,-285 "/>
<polyline fill="none" stroke="#8b7355" points="634.5,-285 628.5,-285 "/>
<text text-anchor="middle" x="568" y="-276.2" font-family="Noto Sans SC" font-size="11.00">蒙古帝国</text>
<text text-anchor="middle" x="568" y="-264.2" font-family="Noto Sans SC" font-size="11.00">摧毁旧秩序·全球化开端</text>
</g>
<!-- t3_mongol&#45;&gt;t4_modern -->
<g id="edge23" class="edge">
<title>t3_mongol&#45;&gt;t4_modern</title>
<path fill="none" stroke="#c0392b" stroke-width="1.2" d="M523.59,-254.97C500.54,-246.3 471.87,-235.76 446,-227 423.61,-219.42 398.88,-211.62 377,-204.92"/>
<polygon fill="#c0392b" stroke="#c0392b" stroke-width="1.2" points="377.75,-201.49 367.16,-201.93 375.71,-208.19 377.75,-201.49"/>
<text text-anchor="middle" x="491.5" y="-229.8" font-family="Noto Sans SC" font-size="9.00">不破不立</text>
</g>
<!-- t3_plague&#45;&gt;t4_modern -->
<g id="edge24" class="edge">
<title>t3_plague&#45;&gt;t4_modern</title>
<path fill="none" stroke="#c0392b" stroke-width="1.2" d="M109.68,-254.97C132.34,-246.29 160.54,-235.76 186,-227 207.75,-219.51 231.75,-211.82 253.09,-205.18"/>
<polygon fill="#c0392b" stroke="#c0392b" stroke-width="1.2" points="254.17,-208.51 262.69,-202.21 252.1,-201.83 254.17,-208.51"/>
<text text-anchor="middle" x="213.5" y="-229.8" font-family="Noto Sans SC" font-size="9.00">封建瓦解加速</text>
</g>
<!-- t3_ottomans -->
<g id="node20" class="node">
<title>t3_ottomans</title>
<polygon fill="#fef5e7" stroke="#8b7355" points="1151.5,-537 1064.5,-537 1064.5,-501 1157.5,-501 1157.5,-531 1151.5,-537"/>
<polyline fill="none" stroke="#8b7355" points="1151.5,-537 1151.5,-531 "/>
<polyline fill="none" stroke="#8b7355" points="1157.5,-531 1151.5,-531 "/>
<text text-anchor="middle" x="1111" y="-522.2" font-family="Noto Sans SC" font-size="11.00">突厥崛起</text>
<text text-anchor="middle" x="1111" y="-510.2" font-family="Noto Sans SC" font-size="11.00">塞尔柱→奥斯曼</text>
</g>
<!-- l1 -->
<g id="node22" class="node">
<title>l1</title>
<polygon fill="#c0392b" stroke="black" points="1427,-537 1365,-537 1365,-501 1427,-501 1427,-537"/>
<text text-anchor="middle" x="1396" y="-516.8" font-family="Noto Sans SC" font-size="9.00" fill="#ffffff">核心驱动力</text>
</g>
<!-- l2 -->
<g id="node23" class="node">
<title>l2</title>
<polygon fill="#d4a574" stroke="black" points="1423,-455 1369,-455 1369,-419 1423,-419 1423,-455"/>
<text text-anchor="middle" x="1396" y="-434.8" font-family="Noto Sans SC" font-size="9.00" fill="#ffffff">文明圈层</text>
</g>
<!-- l1&#45;&gt;l2 -->
<!-- l3 -->
<g id="node24" class="node">
<title>l3</title>
<path fill="#fffaf2" stroke="#5a3e3e" d="M1412,-373C1412,-373 1380,-373 1380,-373 1374,-373 1368,-367 1368,-361 1368,-361 1368,-349 1368,-349 1368,-343 1374,-337 1380,-337 1380,-337 1412,-337 1412,-337 1418,-337 1424,-343 1424,-349 1424,-349 1424,-361 1424,-361 1424,-367 1418,-373 1412,-373"/>
<text text-anchor="middle" x="1396" y="-352.8" font-family="Noto Sans SC" font-size="9.00" fill="#3d2f2f">制度/机构</text>
</g>
<!-- l2&#45;&gt;l3 -->
<!-- l4 -->
<g id="node25" class="node">
<title>l4</title>
<polygon fill="#fef5e7" stroke="#8b7355" points="1418,-291 1368,-291 1368,-255 1424,-255 1424,-285 1418,-291"/>
<polyline fill="none" stroke="#8b7355" points="1418,-291 1418,-285 "/>
<polyline fill="none" stroke="#8b7355" points="1424,-285 1418,-285 "/>
<text text-anchor="middle" x="1396" y="-270.8" font-family="Noto Sans SC" font-size="9.00" fill="#3d2f2f">事件/转折</text>
</g>
<!-- l3&#45;&gt;l4 -->
<!-- le1 -->
<g id="node26" class="node">
<title>le1</title>
<path fill="lightgrey" stroke="transparent" d="M1418.5,-203.5C1418.5,-203.5 1373.5,-203.5 1373.5,-203.5 1367.5,-203.5 1361.5,-197.5 1361.5,-191.5 1361.5,-191.5 1361.5,-179.5 1361.5,-179.5 1361.5,-173.5 1367.5,-167.5 1373.5,-167.5 1373.5,-167.5 1418.5,-167.5 1418.5,-167.5 1424.5,-167.5 1430.5,-173.5 1430.5,-179.5 1430.5,-179.5 1430.5,-191.5 1430.5,-191.5 1430.5,-197.5 1424.5,-203.5 1418.5,-203.5"/>
<text text-anchor="middle" x="1396" y="-183.6" font-family="Noto Sans SC" font-size="8.00" fill="#c0392b">权力张力/冲突</text>
</g>
<!-- l4&#45;&gt;le1 -->
<!-- le2 -->
<g id="node27" class="node">
<title>le2</title>
<path fill="lightgrey" stroke="transparent" d="M1411,-125C1411,-125 1381,-125 1381,-125 1375,-125 1369,-119 1369,-113 1369,-113 1369,-101 1369,-101 1369,-95 1375,-89 1381,-89 1381,-89 1411,-89 1411,-89 1417,-89 1423,-95 1423,-101 1423,-101 1423,-113 1423,-113 1423,-119 1417,-125 1411,-125"/>
<text text-anchor="middle" x="1396" y="-105.1" font-family="Noto Sans SC" font-size="8.00" fill="#d4a574">派生/发展</text>
</g>
<!-- le1&#45;&gt;le2 -->
<!-- le3 -->
<g id="node28" class="node">
<title>le3</title>
<path fill="lightgrey" stroke="transparent" d="M1411,-52C1411,-52 1381,-52 1381,-52 1375,-52 1369,-46 1369,-40 1369,-40 1369,-28 1369,-28 1369,-22 1375,-16 1381,-16 1381,-16 1411,-16 1411,-16 1417,-16 1423,-22 1423,-28 1423,-28 1423,-40 1423,-40 1423,-46 1417,-52 1411,-52"/>
<text text-anchor="middle" x="1396" y="-32.1" font-family="Noto Sans SC" font-size="8.00" fill="#8b7355">应用/结果</text>
</g>
<!-- le2&#45;&gt;le3 -->
</g>
</svg>